<svg xmlns="http://www.w3.org/2000/svg" viewBox="0 0 100 100" fill="none" role="img" aria-label="AdForge Logo"><path d="M53 9 C46.5 20 45.5 26.5 51 32.5 C54.2 36 61.5 35 62.5 28.5 C63.3 23.5 59 20.5 60 15 C58 18.2 56 17 56 14 C56 12 55 10.2 53 9Z" fill="#ff5a1f"/><path d="M64.5 19 C61.5 23.5 62.5 29 66.5 29 C69.7 28 68.6 21.6 64.5 19Z" fill="#ff8338"/><path d="M8 53 L30 46.5 L84 45.5 C86.2 45.5 87.5 47 87.5 49 L87.5 55 C87.5 57 86.2 58.3 84 58.3 L30 58.3 Z" fill="#6b7180" stroke="#202329" stroke-width="2.6" stroke-linejoin="round"/><path d="M31 48 L83 47.2 C84.6 47.2 85.2 48 85 49.2 L31 50.2 Z" fill="#ff5a1f"/><path d="M37 58.3 L63 58.3 C62 64.5 58 66.5 56 69.5 L70 79.5 L70 85.5 L30 85.5 L30 79.5 L44 69.5 C42 66.5 38 64.5 37 58.3Z" fill="#6b7180" stroke="#202329" stroke-width="2.6" stroke-linejoin="round"/><path d="M40.5 85.5 C42.5 80 57.5 80 59.5 85.5 Z" fill="#ff5a1f"/><rect x="26.5" y="84" width="13" height="6.5" rx="1.6" fill="#34373f" stroke="#202329" stroke-width="2.2"/><rect x="60.5" y="84" width="13" height="6.5" rx="1.6" fill="#34373f" stroke="#202329" stroke-width="2.2"/></svg>
